<svg xmlns="http://www.w3.org/2000/svg" xmlns:xlink="http://www.w3.org/1999/xlink" width="235.03" height="73.775" viewBox="0 0 235.03 73.775">
  <defs>
    <clipPath id="clip-path">
      <rect id="Rectangle_1701" data-name="Rectangle 1701" width="235.03" height="73.775" fill="none"/>
    </clipPath>
  </defs>
  <g id="Group_937" data-name="Group 937" transform="translate(0 0)">
    <g id="Group_935" data-name="Group 935" transform="translate(0 0)" clip-path="url(#clip-path)">
      <path id="Path_734" data-name="Path 734" d="M.226,44.011l2.142-3.783a1.179,1.179,0,0,1,1.552-.275c.182.093,3.465,2.509,6.475,2.509a2.856,2.856,0,0,0,3.145-2.736c0-1.917-1.6-3.376-4.7-4.609C4.923,33.571,0,30.514,0,25.042c0-4.515,3.509-9.075,10.53-9.075a16.977,16.977,0,0,1,9.762,3.42,1.153,1.153,0,0,1,.271,1.459l-2.325,3.512c-.319.5-1.14.914-1.552.595-.408-.23-3.739-2.737-6.52-2.737A2.642,2.642,0,0,0,7.3,24.54c0,1.69,1.367,2.964,4.968,4.422,3.557,1.415,9.212,4.2,9.212,10.4,0,4.7-4.059,9.438-10.76,9.438C4.786,48.8,1.5,46.339.453,45.288,0,44.832-.137,44.65.226,44.011" transform="translate(0 -2.27)" fill="#fff"/>
      <path id="Path_735" data-name="Path 735" d="M31.8,17.365a.867.867,0,0,1,.869-.866h5.424a.9.9,0,0,1,.866.866V41.718h9.8a.867.867,0,0,1,.869.865v4.971a.87.87,0,0,1-.869.866H32.667a.867.867,0,0,1-.869-.866Z" transform="translate(-4.519 -2.345)" fill="#fff"/>
      <path id="Path_736" data-name="Path 736" d="M72.687,56.876A9.121,9.121,0,1,0,63.612,47.8a9.138,9.138,0,0,0,9.075,9.074m0-25.537A16.417,16.417,0,1,1,56.317,47.8a16.388,16.388,0,0,1,16.37-16.464" transform="translate(-8.004 -4.454)" fill="#fff"/>
      <path id="Path_737" data-name="Path 737" d="M104.606,23.2H98.083a.863.863,0,0,1-.866-.866V17.365a.865.865,0,0,1,.866-.865h20.247a.869.869,0,0,1,.869.865v4.971a.867.867,0,0,1-.869.866h-6.52V47.555a.9.9,0,0,1-.866.865h-5.472a.9.9,0,0,1-.866-.865Z" transform="translate(-13.817 -2.345)" fill="#fff"/>
      <path id="Path_738" data-name="Path 738" d="M126.268,44.011l2.142-3.783a1.179,1.179,0,0,1,1.552-.275c.182.093,3.465,2.509,6.475,2.509a2.857,2.857,0,0,0,3.146-2.736c0-1.917-1.6-3.376-4.7-4.609-3.921-1.548-8.845-4.6-8.845-10.077,0-4.515,3.509-9.075,10.53-9.075a16.977,16.977,0,0,1,9.762,3.42,1.152,1.152,0,0,1,.271,1.459l-2.325,3.512c-.319.5-1.139.914-1.552.595-.408-.23-3.739-2.737-6.52-2.737a2.642,2.642,0,0,0-2.87,2.324c0,1.69,1.367,2.964,4.968,4.422,3.557,1.415,9.212,4.2,9.212,10.4,0,4.7-4.059,9.438-10.76,9.438-5.93,0-9.212-2.461-10.263-3.512-.453-.456-.59-.638-.226-1.277" transform="translate(-17.913 -2.27)" fill="#fff"/>
      <path id="Path_739" data-name="Path 739" d="M170.34,17.365a.867.867,0,0,1,.869-.866h5.424a.9.9,0,0,1,.866.866V41.718h10.852a.866.866,0,0,1,.869.865v4.971a.869.869,0,0,1-.869.866H171.209a.867.867,0,0,1-.869-.866Z" transform="translate(-24.209 -2.345)" fill="#fff"/>
      <path id="Path_740" data-name="Path 740" d="M188.3,17.684a.8.8,0,0,1,.776-1.185h6.063a.9.9,0,0,1,.776.5l7.523,16.645h.275L211.238,17a.9.9,0,0,1,.776-.5h6.067a.8.8,0,0,1,.772,1.185L204.537,48.375a.875.875,0,0,1-.775.5H203.3a.866.866,0,0,1-.773-.5Z" transform="translate(-26.749 -2.345)" fill="#fff"/>
      <path id="Path_741" data-name="Path 741" d="M79.946,0a9.092,9.092,0,0,1,1.86,5.467,9.1,9.1,0,0,1-18.193,0A9.112,9.112,0,0,1,65.47,0H57.3a16.55,16.55,0,0,0-.985,5.467,16.393,16.393,0,0,0,32.786,0A16.466,16.466,0,0,0,88.113,0Z" transform="translate(-8.004 0)" fill="#fff"/>
      <path id="Path_742" data-name="Path 742" d="M72.99,82.79A8.98,8.98,0,0,1,78.243,84.5h9.323a16.266,16.266,0,0,0-29.116,0h9.323A8.9,8.9,0,0,1,72.99,82.79" transform="translate(-8.307 -10.73)" fill="#fff"/>
    </g>
  </g>
</svg>
